<svg width="171" height="175" viewBox="0 0 171 175" fill="none" xmlns="http://www.w3.org/2000/svg">
<path d="M139.519 119.276C150.257 108.399 157.578 94.561 160.557 79.5126C163.536 64.4641 162.038 48.8806 156.254 34.7327C150.469 20.5849 140.658 8.50812 128.06 0.0295833C115.462 -8.44895 100.643 -12.9484 85.4783 -12.8999C70.3132 -12.8513 55.4825 -8.25686 42.8618 0.302435C30.2411 8.86173 20.3972 21.0015 14.5748 35.1865C8.75244 49.3715 7.21316 64.9647 10.1516 79.9942C13.0901 95.0238 20.3743 108.815 31.0831 119.623L85.3746 64.6284L139.519 119.276Z" fill="#2A4DC9" fill-opacity="0.25"/>
<path d="M68.0959 47.8258H57.0451V54.7726H70.0978V60.1779H50.0182V31.0294H70.1379V36.4547H57.0451V42.6007H68.0959V47.8258ZM96.5436 50.3082C96.4502 52.3369 95.903 54.132 94.902 55.6935C93.9011 57.2417 92.493 58.4428 90.6779 59.297C88.8762 60.1512 86.8141 60.5782 84.4919 60.5782C80.6615 60.5782 77.6452 59.3304 75.4431 56.8346C73.2409 54.3388 72.1398 50.8154 72.1398 46.2643V44.8229C72.1398 41.9668 72.6336 39.471 73.6213 37.3356C74.6223 35.1868 76.057 33.5319 77.9255 32.3707C79.794 31.1962 81.9561 30.609 84.4118 30.609C87.9486 30.609 90.7914 31.5433 92.9401 33.4117C95.0889 35.2669 96.3101 37.8294 96.6037 41.0992H89.5969C89.5435 39.3242 89.0964 38.0496 88.2556 37.2755C87.4147 36.5014 86.1335 36.1144 84.4118 36.1144C82.6634 36.1144 81.3822 36.7684 80.5681 38.0763C79.7539 39.3842 79.3268 41.4729 79.2868 44.3424V46.4044C79.2868 49.5141 79.6738 51.7363 80.4479 53.0709C81.2354 54.4056 82.5834 55.0729 84.4919 55.0729C86.1068 55.0729 87.3413 54.6925 88.1955 53.9318C89.0497 53.171 89.5034 51.9632 89.5568 50.3082H96.5436ZM110.737 40.7189L115.502 31.0294H123.53L115.382 45.4835L123.75 60.1779H115.642L110.737 50.3082L105.833 60.1779H97.7448L106.093 45.4835L97.965 31.0294H105.973L110.737 40.7189Z" fill="black"/>
<g clip-path="url(#clip0)">
<path d="M125.574 119.087L140.574 133.193L73.9725 163.503C73.9725 163.503 65.1723 167.315 60.9722 161.215C44.5717 136.815 125.574 119.087 125.574 119.087Z" fill="#256382"/>
<path d="M72.3725 145.775C72.3725 145.775 59.5722 149.968 61.9722 158.165C64.3723 166.553 74.5726 161.406 74.5726 161.406L137.774 133.384C137.774 133.384 134.174 124.425 140.574 118.515L72.3725 145.775Z" fill="#D9E3E8"/>
<path d="M82.9728 61.7091L143.574 117.943L71.9725 144.631L25.9712 76.3872L82.9728 61.7091Z" fill="#42ADE2"/>
<path d="M84.7728 74.4809L96.3732 86.2997L52.972 101.168L42.7717 86.1091L84.7728 74.4809Z" fill="white"/>
<path d="M137.574 124.615L95.3731 141.009L136.974 122.9L137.574 124.615Z" fill="#94989B"/>
<path d="M136.974 129.572L91.973 147.3L136.174 127.665L136.974 129.572Z" fill="#94989B"/>
<path d="M137.374 132.24L79.9727 156.068L136.574 130.525L137.374 132.24Z" fill="#94989B"/>
<path d="M60.9722 161.215C53.972 147.3 71.9725 144.822 71.9725 144.822L25.9712 76.3872C25.9712 76.3872 15.5709 76.1966 15.5709 86.4904C15.5709 90.6841 17.571 93.9247 17.571 93.9247L60.9722 161.215Z" fill="#428BC1"/>
</g>
<defs>
<clipPath id="clip0">
<rect width="128.004" height="122" fill="white" transform="translate(15.5709 52.1778)"/>
</clipPath>
</defs>
</svg>
